<mxfile host="app.diagrams.net" agent="Mozilla/5.0 (X11; Linux x86_64) AppleWebKit/537.36 (KHTML, like Gecko) Chrome/140.0.0.0 Safari/537.36" version="28.2.5">
  <diagram name="Garbage Analyzer Architecture with Icons" id="jcTMuB2fv5jKwKk1aLvA">
    <mxGraphModel dx="2008" dy="659" grid="1" gridSize="10" guides="1" tooltips="1" connect="1" arrows="1" fold="1" page="1" pageScale="1" pageWidth="827" pageHeight="1169" background="light-dark(#FFFFFF,#FFFFFF)" math="0" shadow="0">
      <root>
        <mxCell id="0" />
        <mxCell id="1" parent="0" />
        <mxCell id="X61LGVX9550JY_IcBpzJ-59" value="Client (Mobile Device)" style="shape=image;image=https://img.icons8.com/ios-filled/50/000000/smartphone.png;verticalLabelPosition=bottom;verticalAlign=top;labelBackgroundColor=none;fillColor=#81d4fa;fontColor=light-dark(#000000,#000000);" parent="1" vertex="1">
          <mxGeometry x="-30" y="165" width="60" height="60" as="geometry" />
        </mxCell>
        <mxCell id="X61LGVX9550JY_IcBpzJ-61" value="Server" style="shape=image;image=https://img.icons8.com/ios-filled/50/000000/server.png;verticalLabelPosition=bottom;verticalAlign=top;labelBackgroundColor=none;fillColor=#a5d6a7;fontColor=light-dark(#000000,#000000);" parent="1" vertex="1">
          <mxGeometry x="190" y="160" width="70" height="70" as="geometry" />
        </mxCell>
        <mxCell id="X61LGVX9550JY_IcBpzJ-63" value="Database" style="shape=image;image=https://img.icons8.com/ios-filled/50/000000/database.png;verticalLabelPosition=bottom;verticalAlign=top;labelBackgroundColor=none;fillColor=#ffd54f;fontColor=light-dark(#000000,#000000);" parent="1" vertex="1">
          <mxGeometry x="190" y="10" width="70" height="70" as="geometry" />
        </mxCell>
        <mxCell id="X61LGVX9550JY_IcBpzJ-65" value="Object Storage (S3)" style="shape=image;image=https://img.icons8.com/ios-filled/50/000000/cloud-storage.png;verticalLabelPosition=bottom;verticalAlign=top;labelBackgroundColor=none;fillColor=#ffccbc;fontColor=light-dark(#000000,#000000);" parent="1" vertex="1">
          <mxGeometry x="190" y="330" width="70" height="70" as="geometry" />
        </mxCell>
        <mxCell id="X61LGVX9550JY_IcBpzJ-67" value="Data Processing Server (Neural Network)" style="shape=image;image=https://img.icons8.com/ios-filled/50/000000/artificial-intelligence.png;verticalLabelPosition=bottom;verticalAlign=top;labelBackgroundColor=none;fillColor=#ce93d8;fontColor=light-dark(#000000,#000000);" parent="1" vertex="1">
          <mxGeometry x="470" y="270" width="70" height="70" as="geometry" />
        </mxCell>
        <mxCell id="X61LGVX9550JY_IcBpzJ-69" value="HTTP" style="edgeStyle=orthogonalEdgeStyle;endArrow=block;strokeColor=#0d47a1;fontSize=12;fontColor=#0d47a1;" parent="1" source="X61LGVX9550JY_IcBpzJ-59" target="X61LGVX9550JY_IcBpzJ-61" edge="1">
          <mxGeometry relative="1" as="geometry" />
        </mxCell>
        <mxCell id="X61LGVX9550JY_IcBpzJ-70" value="SQL/DB Protocol" style="edgeStyle=orthogonalEdgeStyle;endArrow=block;strokeColor=#1b5e20;fontSize=12;fontColor=#1b5e20;" parent="1" source="X61LGVX9550JY_IcBpzJ-61" target="X61LGVX9550JY_IcBpzJ-63" edge="1">
          <mxGeometry relative="1" as="geometry" />
        </mxCell>
        <mxCell id="X61LGVX9550JY_IcBpzJ-71" value="S3 API" style="edgeStyle=orthogonalEdgeStyle;endArrow=block;strokeColor=#bf360c;fontSize=12;fontColor=#bf360c;" parent="1" source="X61LGVX9550JY_IcBpzJ-61" target="X61LGVX9550JY_IcBpzJ-65" edge="1">
          <mxGeometry relative="1" as="geometry" />
        </mxCell>
        <mxCell id="X61LGVX9550JY_IcBpzJ-72" value="HTTP / gRPC" style="edgeStyle=orthogonalEdgeStyle;endArrow=block;strokeColor=#4a148c;fontSize=12;fontColor=#4a148c;" parent="1" source="X61LGVX9550JY_IcBpzJ-61" target="X61LGVX9550JY_IcBpzJ-67" edge="1">
          <mxGeometry relative="1" as="geometry" />
        </mxCell>
        <mxCell id="X61LGVX9550JY_IcBpzJ-73" value="S3 API" style="edgeStyle=orthogonalEdgeStyle;endArrow=block;strokeColor=#4a148c;fontSize=12;fontColor=#4a148c;" parent="1" source="X61LGVX9550JY_IcBpzJ-67" target="X61LGVX9550JY_IcBpzJ-65" edge="1">
          <mxGeometry relative="1" as="geometry" />
        </mxCell>
      </root>
    </mxGraphModel>
  </diagram>
</mxfile>
